<?xml version="1.0" encoding="UTF-8"?>
<svg xmlns="http://www.w3.org/2000/svg" viewBox="0 0 520 1850" font-family="Segoe UI, Arial, sans-serif">
  <defs>
    <linearGradient id="headerGrad" x1="0%" y1="0%" x2="100%" y2="0%">
      <stop offset="0%" stop-color="#2563EB"/>
      <stop offset="100%" stop-color="#3B82F6"/>
    </linearGradient>
  </defs>

  <!-- Background -->
  <rect width="520" height="1850" fill="#F1F5F9"/>

  <!-- Title -->
  <text x="260" y="35" text-anchor="middle" font-size="18" font-weight="700" fill="#1E293B">Mobile View Wireframes (375px)</text>
  <text x="260" y="55" text-anchor="middle" font-size="12" fill="#64748B">TODO Web App - UI Design</text>

  <!-- ============================================ -->
  <!-- SCREEN 1: Login -->
  <!-- ============================================ -->
  <text x="60" y="90" font-size="14" font-weight="700" fill="#475569">Screen 1: Login</text>
  <line x1="60" y1="97" x2="460" y2="97" stroke="#CBD5E1" stroke-width="1"/>

  <!-- Phone frame -->
  <rect x="85" y="110" width="350" height="620" rx="28" fill="#1E293B" stroke="#0F172A" stroke-width="2"/>
  <!-- Screen -->
  <rect x="95" y="140" width="330" height="565" rx="4" fill="#FFFFFF"/>
  <!-- Status bar -->
  <rect x="95" y="140" width="330" height="24" fill="#F8FAFC"/>
  <text x="115" y="156" font-size="9" font-weight="600" fill="#1E293B">9:41</text>
  <rect x="365" y="148" width="18" height="9" rx="2" fill="#1E293B"/>
  <rect x="384" y="150" width="2" height="5" rx="1" fill="#1E293B"/>
  <!-- Notch -->
  <rect x="210" y="112" width="100" height="22" rx="11" fill="#0F172A"/>

  <!-- Content area -->
  <!-- App logo area -->
  <rect x="160" y="210" width="200" height="44" rx="8" fill="#EFF6FF"/>
  <text x="260" y="238" text-anchor="middle" font-size="18" font-weight="700" fill="#2563EB">TODO App</text>

  <!-- Tabs -->
  <rect x="120" y="275" width="130" height="32" rx="6" fill="#2563EB"/>
  <text x="185" y="296" text-anchor="middle" font-size="11" font-weight="600" fill="#FFFFFF">Login</text>
  <rect x="260" y="275" width="130" height="32" rx="6" fill="#F1F5F9" stroke="#E2E8F0" stroke-width="1"/>
  <text x="325" y="296" text-anchor="middle" font-size="11" font-weight="600" fill="#64748B">Sign Up</text>

  <!-- Email -->
  <text x="120" y="335" font-size="10" font-weight="600" fill="#374151">Email</text>
  <rect x="120" y="342" width="280" height="38" rx="6" fill="#FFFFFF" stroke="#D1D5DB" stroke-width="1"/>
  <text x="134" y="366" font-size="11" fill="#9CA3AF">you@example.com</text>

  <!-- Password -->
  <text x="120" y="400" font-size="10" font-weight="600" fill="#374151">Password</text>
  <rect x="120" y="407" width="280" height="38" rx="6" fill="#FFFFFF" stroke="#D1D5DB" stroke-width="1"/>
  <text x="134" y="431" font-size="11" fill="#9CA3AF">&#8226;&#8226;&#8226;&#8226;&#8226;&#8226;&#8226;&#8226;</text>

  <!-- Login button -->
  <rect x="120" y="468" width="280" height="42" rx="8" fill="#2563EB"/>
  <text x="260" y="494" text-anchor="middle" font-size="13" font-weight="700" fill="#FFFFFF">Login</text>

  <!-- Forgot password -->
  <text x="260" y="535" text-anchor="middle" font-size="11" fill="#3B82F6">Forgot password?</text>

  <!-- Home indicator -->
  <rect x="210" y="688" width="100" height="4" rx="2" fill="#D1D5DB"/>

  <!-- ============================================ -->
  <!-- SCREEN 2: Main - TODO List -->
  <!-- ============================================ -->
  <text x="60" y="775" font-size="14" font-weight="700" fill="#475569">Screen 2: Main - TODO List</text>
  <line x1="60" y1="782" x2="460" y2="782" stroke="#CBD5E1" stroke-width="1"/>

  <!-- Phone frame -->
  <rect x="85" y="795" width="350" height="1020" rx="28" fill="#1E293B" stroke="#0F172A" stroke-width="2"/>
  <!-- Screen -->
  <rect x="95" y="825" width="330" height="965" rx="4" fill="#F8FAFC"/>
  <!-- Status bar -->
  <rect x="95" y="825" width="330" height="24" fill="#F8FAFC"/>
  <text x="115" y="841" font-size="9" font-weight="600" fill="#1E293B">9:41</text>
  <rect x="365" y="833" width="18" height="9" rx="2" fill="#1E293B"/>
  <rect x="384" y="835" width="2" height="5" rx="1" fill="#1E293B"/>
  <!-- Notch -->
  <rect x="210" y="797" width="100" height="22" rx="11" fill="#0F172A"/>

  <!-- Header -->
  <rect x="95" y="849" width="330" height="44" fill="url(#headerGrad)"/>
  <text x="115" y="877" font-size="15" font-weight="700" fill="#FFFFFF">TODO App</text>
  <!-- Hamburger menu or user icon -->
  <circle cx="393" cy="871" r="12" fill="#FFFFFF" fill-opacity="0.2"/>
  <text x="393" y="876" text-anchor="middle" font-size="12" fill="#FFFFFF">&#9776;</text>

  <!-- New TODO Form (collapsible) -->
  <rect x="105" y="903" width="310" height="235" rx="8" fill="#FFFFFF" stroke="#E2E8F0" stroke-width="1"/>
  <text x="120" y="924" font-size="12" font-weight="700" fill="#1E293B">New TODO</text>
  <text x="395" y="924" text-anchor="end" font-size="16" fill="#94A3B8">&#9650;</text>
  <line x1="105" y1="932" x2="415" y2="932" stroke="#F1F5F9" stroke-width="1"/>

  <!-- Title -->
  <text x="118" y="952" font-size="9" font-weight="600" fill="#6B7280">Title *</text>
  <rect x="118" y="958" width="282" height="30" rx="5" fill="#FFFFFF" stroke="#D1D5DB" stroke-width="1"/>
  <text x="130" y="977" font-size="10" fill="#9CA3AF">Enter title...</text>

  <!-- Description -->
  <text x="118" y="1002" font-size="9" font-weight="600" fill="#6B7280">Description</text>
  <rect x="118" y="1008" width="282" height="30" rx="5" fill="#FFFFFF" stroke="#D1D5DB" stroke-width="1"/>
  <text x="130" y="1027" font-size="10" fill="#9CA3AF">Enter description...</text>

  <!-- Priority + Due Date (side by side) -->
  <text x="118" y="1052" font-size="9" font-weight="600" fill="#6B7280">Priority</text>
  <!-- Priority pills -->
  <rect x="118" y="1058" width="40" height="22" rx="11" fill="#FEE2E2" stroke="#DC2626" stroke-width="1"/>
  <text x="138" y="1073" text-anchor="middle" font-size="8" font-weight="600" fill="#DC2626">High</text>
  <rect x="164" y="1058" width="40" height="22" rx="11" fill="#FFFFFF" stroke="#D1D5DB" stroke-width="1"/>
  <text x="184" y="1073" text-anchor="middle" font-size="8" fill="#6B7280">Med</text>
  <rect x="210" y="1058" width="40" height="22" rx="11" fill="#FFFFFF" stroke="#D1D5DB" stroke-width="1"/>
  <text x="230" y="1073" text-anchor="middle" font-size="8" fill="#6B7280">Low</text>

  <text x="270" y="1052" font-size="9" font-weight="600" fill="#6B7280">Due Date *</text>
  <rect x="270" y="1058" width="130" height="22" rx="5" fill="#FFFFFF" stroke="#D1D5DB" stroke-width="1"/>
  <text x="282" y="1073" font-size="9" fill="#9CA3AF">YYYY-MM-DD</text>

  <!-- Add button (full width) -->
  <rect x="118" y="1094" width="282" height="34" rx="6" fill="#2563EB"/>
  <text x="259" y="1116" text-anchor="middle" font-size="12" font-weight="700" fill="#FFFFFF">+ Add TODO</text>

  <!-- Search Bar -->
  <rect x="105" y="1148" width="310" height="32" rx="6" fill="#FFFFFF" stroke="#E2E8F0" stroke-width="1"/>
  <circle cx="121" cy="1164" r="5" fill="none" stroke="#9CA3AF" stroke-width="1.2"/>
  <line x1="125" y1="1168" x2="128" y2="1171" stroke="#9CA3AF" stroke-width="1.2"/>
  <text x="135" y="1168" font-size="10" fill="#9CA3AF">Search by title...</text>

  <!-- Filter + Sort row -->
  <rect x="105" y="1188" width="150" height="28" rx="5" fill="#FFFFFF" stroke="#E2E8F0" stroke-width="1"/>
  <text x="117" y="1206" font-size="9" fill="#6B7280">Filter:</text>
  <text x="148" y="1206" font-size="9" font-weight="600" fill="#374151">All</text>
  <text x="243" y="1206" font-size="9" fill="#9CA3AF">&#9662;</text>

  <rect x="265" y="1188" width="150" height="28" rx="5" fill="#FFFFFF" stroke="#E2E8F0" stroke-width="1"/>
  <text x="277" y="1206" font-size="9" fill="#6B7280">Sort:</text>
  <text x="303" y="1206" font-size="9" font-weight="600" fill="#374151">Created</text>
  <text x="403" y="1206" font-size="9" fill="#9CA3AF">&#9662;</text>

  <!-- TODO Item 1: High priority -->
  <rect x="105" y="1228" width="310" height="85" rx="8" fill="#FFFFFF" stroke="#E2E8F0" stroke-width="1"/>
  <!-- Left priority bar -->
  <rect x="105" y="1228" width="5" height="85" rx="2.5" fill="#DC2626"/>
  <!-- Checkbox -->
  <rect x="120" y="1243" width="18" height="18" rx="4" fill="#FFFFFF" stroke="#D1D5DB" stroke-width="1.5"/>
  <!-- Content -->
  <text x="148" y="1255" font-size="12" font-weight="600" fill="#1E293B">Write project proposal</text>
  <text x="148" y="1272" font-size="9" fill="#6B7280">Draft the initial project proposal...</text>
  <!-- Bottom row: badges -->
  <rect x="148" y="1283" width="38" height="16" rx="8" fill="#FEE2E2"/>
  <text x="167" y="1294" text-anchor="middle" font-size="8" font-weight="600" fill="#DC2626">HIGH</text>
  <rect x="192" y="1283" width="62" height="16" rx="4" fill="#F1F5F9"/>
  <text x="223" y="1294" text-anchor="middle" font-size="8" fill="#64748B">2026-04-15</text>
  <!-- Delete -->
  <rect x="365" y="1240" width="40" height="24" rx="4" fill="#FFFFFF" stroke="#FCA5A5" stroke-width="1"/>
  <text x="385" y="1256" text-anchor="middle" font-size="9" fill="#DC2626">Del</text>

  <!-- TODO Item 2: Medium, completed -->
  <rect x="105" y="1323" width="310" height="85" rx="8" fill="#F8FAFC" stroke="#E2E8F0" stroke-width="1"/>
  <!-- Left priority bar -->
  <rect x="105" y="1323" width="5" height="85" rx="2.5" fill="#F59E0B"/>
  <!-- Checkbox (checked) -->
  <rect x="120" y="1338" width="18" height="18" rx="4" fill="#2563EB"/>
  <polyline points="125,1348 128,1351 134,1342" fill="none" stroke="#FFFFFF" stroke-width="2" stroke-linecap="round" stroke-linejoin="round"/>
  <!-- Content (strikethrough) -->
  <text x="148" y="1350" font-size="12" font-weight="600" fill="#94A3B8" text-decoration="line-through">Prepare meeting materials</text>
  <text x="148" y="1367" font-size="9" fill="#CBD5E1" text-decoration="line-through">Weekly meeting presentation prep</text>
  <!-- Badges -->
  <rect x="148" y="1378" width="42" height="16" rx="8" fill="#FEF3C7"/>
  <text x="169" y="1389" text-anchor="middle" font-size="8" font-weight="600" fill="#D97706">MED</text>
  <rect x="196" y="1378" width="62" height="16" rx="4" fill="#F1F5F9"/>
  <text x="227" y="1389" text-anchor="middle" font-size="8" fill="#94A3B8">2026-04-10</text>
  <!-- Done badge -->
  <rect x="350" y="1378" width="52" height="16" rx="8" fill="#DCFCE7"/>
  <text x="376" y="1389" text-anchor="middle" font-size="8" font-weight="600" fill="#16A34A">Done</text>

  <!-- TODO Item 3: Low priority -->
  <rect x="105" y="1418" width="310" height="85" rx="8" fill="#FFFFFF" stroke="#E2E8F0" stroke-width="1"/>
  <!-- Left priority bar -->
  <rect x="105" y="1418" width="5" height="85" rx="2.5" fill="#22C55E"/>
  <!-- Checkbox -->
  <rect x="120" y="1433" width="18" height="18" rx="4" fill="#FFFFFF" stroke="#D1D5DB" stroke-width="1.5"/>
  <!-- Content -->
  <text x="148" y="1445" font-size="12" font-weight="600" fill="#1E293B">Check emails</text>
  <text x="148" y="1462" font-size="9" fill="#6B7280">Process unread emails from...</text>
  <!-- Badges -->
  <rect x="148" y="1473" width="36" height="16" rx="8" fill="#DCFCE7"/>
  <text x="166" y="1484" text-anchor="middle" font-size="8" font-weight="600" fill="#16A34A">LOW</text>
  <rect x="190" y="1473" width="62" height="16" rx="4" fill="#F1F5F9"/>
  <text x="221" y="1484" text-anchor="middle" font-size="8" fill="#64748B">2026-04-20</text>
  <!-- Delete -->
  <rect x="365" y="1432" width="40" height="24" rx="4" fill="#FFFFFF" stroke="#FCA5A5" stroke-width="1"/>
  <text x="385" y="1448" text-anchor="middle" font-size="9" fill="#DC2626">Del</text>

  <!-- Home indicator -->
  <rect x="210" y="1798" width="100" height="4" rx="2" fill="#D1D5DB"/>

  <!-- Interaction notes -->
  <rect x="60" y="1520" width="400" height="24" rx="4" fill="#FEF3C7" stroke="#FDE68A" stroke-width="0.5"/>
  <text x="260" y="1536" text-anchor="middle" font-size="10" fill="#92400E">Collapsible form: tap header to expand/collapse New TODO form</text>

  <!-- Mobile-specific notes -->
  <rect x="60" y="1555" width="400" height="80" rx="6" fill="#FFFFFF" stroke="#E2E8F0" stroke-width="1"/>
  <text x="80" y="1575" font-size="11" font-weight="700" fill="#475569">Mobile Adaptations:</text>
  <text x="80" y="1593" font-size="10" fill="#64748B">&#8226; Full-width stacked layout (single column)</text>
  <text x="80" y="1608" font-size="10" fill="#64748B">&#8226; Collapsible new TODO form to save space</text>
  <text x="80" y="1623" font-size="10" fill="#64748B">&#8226; Priority shown as left color bar + compact badge</text>
</svg>
