<?xml version="1.0" encoding="UTF-8"?>
<svg xmlns="http://www.w3.org/2000/svg" viewBox="0 0 1100 1500" font-family="Segoe UI, Arial, sans-serif">
  <defs>
    <linearGradient id="headerGrad" x1="0%" y1="0%" x2="100%" y2="0%">
      <stop offset="0%" stop-color="#2563EB"/>
      <stop offset="100%" stop-color="#3B82F6"/>
    </linearGradient>
  </defs>

  <!-- Background -->
  <rect width="1100" height="1500" fill="#F1F5F9"/>

  <!-- Title -->
  <text x="550" y="40" text-anchor="middle" font-size="22" font-weight="700" fill="#1E293B">Desktop View Wireframes (1280px)</text>
  <text x="550" y="62" text-anchor="middle" font-size="13" fill="#64748B">TODO Web App - UI Design</text>

  <!-- ============================================ -->
  <!-- SCREEN 1: Login / Sign Up -->
  <!-- ============================================ -->
  <text x="80" y="105" font-size="16" font-weight="700" fill="#475569">Screen 1: Login / Sign Up</text>
  <line x1="80" y1="112" x2="1020" y2="112" stroke="#CBD5E1" stroke-width="1"/>

  <!-- Browser frame -->
  <rect x="80" y="125" width="940" height="520" rx="8" fill="#FFFFFF" stroke="#D1D5DB" stroke-width="1.5"/>
  <!-- Browser bar -->
  <rect x="80" y="125" width="940" height="32" rx="8" fill="#F3F4F6" stroke="#D1D5DB" stroke-width="1.5"/>
  <rect x="80" y="149" width="940" height="4" fill="#F3F4F6"/>
  <circle cx="100" cy="141" r="5" fill="#FCA5A5"/>
  <circle cx="116" cy="141" r="5" fill="#FDE68A"/>
  <circle cx="132" cy="141" r="5" fill="#86EFAC"/>
  <rect x="200" y="133" width="300" height="16" rx="4" fill="#E5E7EB"/>
  <text x="350" y="145" text-anchor="middle" font-size="9" fill="#9CA3AF">https://todo-app.github.io</text>

  <!-- Center card -->
  <rect x="350" y="210" width="400" height="390" rx="12" fill="#FFFFFF" stroke="#E2E8F0" stroke-width="1.5"/>

  <!-- App title -->
  <rect x="390" y="235" width="320" height="40" rx="6" fill="#EFF6FF"/>
  <text x="550" y="261" text-anchor="middle" font-size="20" font-weight="700" fill="#2563EB">TODO App</text>

  <!-- Tab: Login / Sign Up -->
  <rect x="390" y="295" width="155" height="32" rx="6" fill="#2563EB"/>
  <text x="467" y="316" text-anchor="middle" font-size="12" font-weight="600" fill="#FFFFFF">Login</text>
  <rect x="555" y="295" width="155" height="32" rx="6" fill="#F1F5F9" stroke="#E2E8F0" stroke-width="1"/>
  <text x="632" y="316" text-anchor="middle" font-size="12" font-weight="600" fill="#64748B">Sign Up</text>

  <!-- Email input -->
  <text x="390" y="356" font-size="11" font-weight="600" fill="#374151">Email</text>
  <rect x="390" y="362" width="320" height="38" rx="6" fill="#FFFFFF" stroke="#D1D5DB" stroke-width="1"/>
  <text x="406" y="386" font-size="12" fill="#9CA3AF">you@example.com</text>

  <!-- Password input -->
  <text x="390" y="420" font-size="11" font-weight="600" fill="#374151">Password</text>
  <rect x="390" y="426" width="320" height="38" rx="6" fill="#FFFFFF" stroke="#D1D5DB" stroke-width="1"/>
  <text x="406" y="450" font-size="12" fill="#9CA3AF">&#8226;&#8226;&#8226;&#8226;&#8226;&#8226;&#8226;&#8226;</text>

  <!-- Login button -->
  <rect x="390" y="490" width="320" height="42" rx="8" fill="#2563EB"/>
  <text x="550" y="516" text-anchor="middle" font-size="14" font-weight="700" fill="#FFFFFF">Login</text>

  <!-- Forgot password -->
  <text x="550" y="555" text-anchor="middle" font-size="11" fill="#3B82F6">Forgot password?</text>

  <!-- Error message annotation -->
  <rect x="760" y="365" width="200" height="50" rx="6" fill="#FEF2F2" stroke="#FECACA" stroke-width="1"/>
  <text x="770" y="383" font-size="10" font-weight="600" fill="#DC2626">Validation Error</text>
  <text x="770" y="398" font-size="9" fill="#7F1D1D">Invalid email or password</text>
  <text x="770" y="410" font-size="9" fill="#7F1D1D">displayed below input field</text>
  <line x1="710" y1="381" x2="758" y2="385" stroke="#FECACA" stroke-width="1" stroke-dasharray="3,2"/>

  <!-- ============================================ -->
  <!-- SCREEN 2: Main - TODO List -->
  <!-- ============================================ -->
  <text x="80" y="690" font-size="16" font-weight="700" fill="#475569">Screen 2: Main - TODO List</text>
  <line x1="80" y1="697" x2="1020" y2="697" stroke="#CBD5E1" stroke-width="1"/>

  <!-- Browser frame -->
  <rect x="80" y="710" width="940" height="760" rx="8" fill="#FFFFFF" stroke="#D1D5DB" stroke-width="1.5"/>
  <!-- Browser bar -->
  <rect x="80" y="710" width="940" height="32" rx="8" fill="#F3F4F6" stroke="#D1D5DB" stroke-width="1.5"/>
  <rect x="80" y="734" width="940" height="4" fill="#F3F4F6"/>
  <circle cx="100" cy="726" r="5" fill="#FCA5A5"/>
  <circle cx="116" cy="726" r="5" fill="#FDE68A"/>
  <circle cx="132" cy="726" r="5" fill="#86EFAC"/>
  <rect x="200" y="718" width="300" height="16" rx="4" fill="#E5E7EB"/>
  <text x="350" y="730" text-anchor="middle" font-size="9" fill="#9CA3AF">https://todo-app.github.io</text>

  <!-- Header -->
  <rect x="80" y="742" width="940" height="50" fill="url(#headerGrad)"/>
  <text x="110" y="773" font-size="18" font-weight="700" fill="#FFFFFF">TODO App</text>
  <text x="870" y="770" font-size="11" fill="#DBEAFE">user@email.com</text>
  <rect x="945" y="758" width="60" height="26" rx="4" fill="#FFFFFF" fill-opacity="0.2"/>
  <text x="975" y="775" text-anchor="middle" font-size="10" font-weight="600" fill="#FFFFFF">Logout</text>

  <!-- New TODO Form Card -->
  <rect x="110" y="810" width="880" height="160" rx="10" fill="#FFFFFF" stroke="#E2E8F0" stroke-width="1"/>
  <text x="130" y="835" font-size="14" font-weight="700" fill="#1E293B">New TODO</text>
  <line x1="110" y1="845" x2="990" y2="845" stroke="#F1F5F9" stroke-width="1"/>

  <!-- Title input -->
  <text x="130" y="870" font-size="10" font-weight="600" fill="#6B7280">Title *</text>
  <rect x="130" y="876" width="400" height="32" rx="5" fill="#FFFFFF" stroke="#D1D5DB" stroke-width="1"/>
  <text x="142" y="896" font-size="11" fill="#9CA3AF">Enter title...</text>

  <!-- Description input -->
  <text x="550" y="870" font-size="10" font-weight="600" fill="#6B7280">Description</text>
  <rect x="550" y="876" width="420" height="32" rx="5" fill="#FFFFFF" stroke="#D1D5DB" stroke-width="1"/>
  <text x="562" y="896" font-size="11" fill="#9CA3AF">Enter description...</text>

  <!-- Priority radio -->
  <text x="130" y="930" font-size="10" font-weight="600" fill="#6B7280">Priority</text>
  <!-- High -->
  <circle cx="142" cy="948" r="7" fill="#FFFFFF" stroke="#DC2626" stroke-width="2"/>
  <circle cx="142" cy="948" r="3.5" fill="#DC2626"/>
  <text x="156" y="952" font-size="10" fill="#374151">High</text>
  <!-- Medium -->
  <circle cx="202" cy="948" r="7" fill="#FFFFFF" stroke="#F59E0B" stroke-width="2"/>
  <text x="216" y="952" font-size="10" fill="#374151">Medium</text>
  <!-- Low -->
  <circle cx="278" cy="948" r="7" fill="#FFFFFF" stroke="#22C55E" stroke-width="2"/>
  <text x="292" y="952" font-size="10" fill="#374151">Low</text>

  <!-- Due Date -->
  <text x="380" y="930" font-size="10" font-weight="600" fill="#6B7280">Due Date *</text>
  <rect x="380" y="936" width="140" height="28" rx="5" fill="#FFFFFF" stroke="#D1D5DB" stroke-width="1"/>
  <text x="392" y="954" font-size="10" fill="#9CA3AF">YYYY-MM-DD</text>

  <!-- Add button -->
  <rect x="870" y="932" width="100" height="34" rx="6" fill="#2563EB"/>
  <text x="920" y="954" text-anchor="middle" font-size="12" font-weight="700" fill="#FFFFFF">+ Add</text>

  <!-- Search and Filter Bar -->
  <rect x="110" y="985" width="880" height="45" rx="8" fill="#F8FAFC" stroke="#E2E8F0" stroke-width="1"/>

  <!-- Search -->
  <rect x="125" y="995" width="300" height="28" rx="5" fill="#FFFFFF" stroke="#D1D5DB" stroke-width="1"/>
  <text x="145" y="1013" font-size="11" fill="#9CA3AF">Search by title...</text>
  <!-- Search icon -->
  <circle cx="137" cy="1009" r="5" fill="none" stroke="#9CA3AF" stroke-width="1.2"/>
  <line x1="141" y1="1013" x2="144" y2="1016" stroke="#9CA3AF" stroke-width="1.2"/>

  <!-- Filter -->
  <text x="450" y="1013" font-size="10" font-weight="600" fill="#6B7280">Filter:</text>
  <rect x="490" y="995" width="120" height="28" rx="5" fill="#FFFFFF" stroke="#D1D5DB" stroke-width="1"/>
  <text x="502" y="1013" font-size="10" fill="#374151">All Priorities</text>
  <text x="598" y="1013" font-size="10" fill="#9CA3AF">&#9662;</text>

  <!-- Sort -->
  <text x="635" y="1013" font-size="10" font-weight="600" fill="#6B7280">Sort:</text>
  <rect x="665" y="995" width="130" height="28" rx="5" fill="#FFFFFF" stroke="#D1D5DB" stroke-width="1"/>
  <text x="677" y="1013" font-size="10" fill="#374151">Created Date</text>
  <text x="783" y="1013" font-size="10" fill="#9CA3AF">&#9662;</text>

  <!-- Count -->
  <rect x="820" y="998" width="60" height="22" rx="11" fill="#EFF6FF"/>
  <text x="850" y="1013" text-anchor="middle" font-size="10" font-weight="600" fill="#2563EB">3 items</text>

  <!-- TODO List -->
  <!-- Item 1: High priority, incomplete -->
  <rect x="110" y="1045" width="880" height="75" rx="8" fill="#FFFFFF" stroke="#E2E8F0" stroke-width="1"/>
  <!-- Checkbox -->
  <rect x="130" y="1070" width="20" height="20" rx="4" fill="#FFFFFF" stroke="#D1D5DB" stroke-width="1.5"/>
  <!-- Priority indicator -->
  <rect x="165" y="1055" width="6" height="55" rx="3" fill="#DC2626"/>
  <!-- Content -->
  <text x="185" y="1072" font-size="14" font-weight="600" fill="#1E293B">Write project proposal</text>
  <text x="185" y="1092" font-size="11" fill="#6B7280">Draft the initial project proposal document for Q2</text>
  <!-- Priority badge -->
  <rect x="680" y="1060" width="48" height="20" rx="10" fill="#FEE2E2"/>
  <text x="704" y="1074" text-anchor="middle" font-size="9" font-weight="600" fill="#DC2626">HIGH</text>
  <!-- Due date -->
  <rect x="740" y="1060" width="80" height="20" rx="4" fill="#F1F5F9"/>
  <text x="780" y="1074" text-anchor="middle" font-size="9" fill="#64748B">2026-04-15</text>
  <!-- Created -->
  <text x="840" y="1074" font-size="9" fill="#94A3B8">Mar 31</text>
  <!-- Delete button -->
  <rect x="925" y="1065" width="50" height="26" rx="4" fill="#FFFFFF" stroke="#FCA5A5" stroke-width="1"/>
  <text x="950" y="1082" text-anchor="middle" font-size="10" fill="#DC2626">Delete</text>

  <!-- Item 2: Medium priority, completed -->
  <rect x="110" y="1130" width="880" height="75" rx="8" fill="#F8FAFC" stroke="#E2E8F0" stroke-width="1"/>
  <!-- Checkbox (checked) -->
  <rect x="130" y="1155" width="20" height="20" rx="4" fill="#2563EB" stroke="#2563EB" stroke-width="1.5"/>
  <polyline points="135,1166 139,1170 146,1159" fill="none" stroke="#FFFFFF" stroke-width="2" stroke-linecap="round" stroke-linejoin="round"/>
  <!-- Priority indicator -->
  <rect x="165" y="1140" width="6" height="55" rx="3" fill="#F59E0B"/>
  <!-- Content (strikethrough style - gray) -->
  <text x="185" y="1157" font-size="14" font-weight="600" fill="#94A3B8" text-decoration="line-through">Prepare meeting materials</text>
  <text x="185" y="1177" font-size="11" fill="#CBD5E1" text-decoration="line-through">Weekly meeting presentation prep</text>
  <!-- Priority badge -->
  <rect x="680" y="1145" width="62" height="20" rx="10" fill="#FEF3C7"/>
  <text x="711" y="1159" text-anchor="middle" font-size="9" font-weight="600" fill="#D97706">MEDIUM</text>
  <!-- Due date -->
  <rect x="755" y="1145" width="80" height="20" rx="4" fill="#F1F5F9"/>
  <text x="795" y="1159" text-anchor="middle" font-size="9" fill="#94A3B8">2026-04-10</text>
  <!-- Created -->
  <text x="847" y="1159" font-size="9" fill="#94A3B8">Mar 30</text>
  <!-- Completed badge -->
  <rect x="910" y="1148" width="65" height="20" rx="10" fill="#DCFCE7"/>
  <text x="942" y="1162" text-anchor="middle" font-size="9" font-weight="600" fill="#16A34A">Done</text>

  <!-- Item 3: Low priority, incomplete -->
  <rect x="110" y="1215" width="880" height="75" rx="8" fill="#FFFFFF" stroke="#E2E8F0" stroke-width="1"/>
  <!-- Checkbox -->
  <rect x="130" y="1240" width="20" height="20" rx="4" fill="#FFFFFF" stroke="#D1D5DB" stroke-width="1.5"/>
  <!-- Priority indicator -->
  <rect x="165" y="1225" width="6" height="55" rx="3" fill="#22C55E"/>
  <!-- Content -->
  <text x="185" y="1242" font-size="14" font-weight="600" fill="#1E293B">Check emails</text>
  <text x="185" y="1262" font-size="11" fill="#6B7280">Process unread emails from this week</text>
  <!-- Priority badge -->
  <rect x="680" y="1230" width="44" height="20" rx="10" fill="#DCFCE7"/>
  <text x="702" y="1244" text-anchor="middle" font-size="9" font-weight="600" fill="#16A34A">LOW</text>
  <!-- Due date -->
  <rect x="740" y="1230" width="80" height="20" rx="4" fill="#F1F5F9"/>
  <text x="780" y="1244" text-anchor="middle" font-size="9" fill="#64748B">2026-04-20</text>
  <!-- Created -->
  <text x="840" y="1244" font-size="9" fill="#94A3B8">Mar 31</text>
  <!-- Delete button -->
  <rect x="925" y="1235" width="50" height="26" rx="4" fill="#FFFFFF" stroke="#FCA5A5" stroke-width="1"/>
  <text x="950" y="1252" text-anchor="middle" font-size="10" fill="#DC2626">Delete</text>

  <!-- Annotations -->
  <!-- Priority color guide -->
  <rect x="110" y="1310" width="880" height="45" rx="6" fill="#F8FAFC" stroke="#E2E8F0" stroke-width="1"/>
  <text x="130" y="1332" font-size="10" font-weight="600" fill="#475569">Priority Colors:</text>
  <circle cx="230" cy="1328" r="6" fill="#DC2626"/>
  <text x="242" y="1332" font-size="10" fill="#374151">High</text>
  <circle cx="290" cy="1328" r="6" fill="#F59E0B"/>
  <text x="302" y="1332" font-size="10" fill="#374151">Medium</text>
  <circle cx="365" cy="1328" r="6" fill="#22C55E"/>
  <text x="377" y="1332" font-size="10" fill="#374151">Low</text>

  <text x="520" y="1332" font-size="10" font-weight="600" fill="#475569">States:</text>
  <rect x="560" y="1318" width="16" height="16" rx="3" fill="#FFFFFF" stroke="#D1D5DB" stroke-width="1.2"/>
  <text x="582" y="1332" font-size="10" fill="#374151">Incomplete</text>
  <rect x="650" y="1318" width="16" height="16" rx="3" fill="#2563EB"/>
  <polyline points="654,1327 657,1330 662,1322" fill="none" stroke="#FFFFFF" stroke-width="1.5" stroke-linecap="round"/>
  <text x="672" y="1332" font-size="10" fill="#374151">Completed (text strikethrough)</text>

  <!-- Footer note -->
  <text x="550" y="1390" text-anchor="middle" font-size="11" fill="#94A3B8">Desktop layout: min-width 1024px | Fixed-width centered content</text>

  <!-- Footer -->
  <rect x="110" y="1420" width="880" height="40" rx="0" fill="#F8FAFC" stroke="#E2E8F0" stroke-width="1"/>
  <text x="550" y="1445" text-anchor="middle" font-size="10" fill="#94A3B8">TODO App - Desktop Wireframe</text>
</svg>
